<?xml version="1.0" encoding="UTF-8"?>
<!DOCTYPE svg PUBLIC "-//W3C//DTD SVG 1.1//EN" "http://www.w3.org/Graphics/SVG/1.1/DTD/svg11.dtd">
<!-- Creator: CorelDRAW X7 -->
<svg xmlns="http://www.w3.org/2000/svg" xml:space="preserve" width="196.427mm" height="196.427mm" version="1.1" shape-rendering="geometricPrecision" text-rendering="geometricPrecision" image-rendering="optimizeQuality" fill-rule="evenodd" clip-rule="evenodd"
viewBox="0 0 9515 9515"
 xmlns:xlink="http://www.w3.org/1999/xlink">
 <g id="Layer_x0020_1">
  <metadata id="CorelCorpID_0Corel-Layer"/>
  <rect fill="none" width="9515" height="9515"/>
  <g id="check-mark-button.svg">
   <g>
    <path fill="black" d="M4758 149c-2541,0 -4609,2067 -4609,4608 0,2541 2068,4609 4609,4609 2541,0 4608,-2067 4608,-4609 0,-2541 -2067,-4608 -4608,-4608zm1994 3664l-2413 2414c-73,72 -168,109 -263,109 -95,0 -190,-37 -263,-109l-1049 -1050c-145,-145 -145,-380 0,-525 145,-145 380,-145 525,0l787 787 2151 -2151c145,-145 380,-145 525,0 145,145 145,380 0,525z"/>
   </g>
   <g>
   </g>
   <g>
   </g>
   <g>
   </g>
   <g>
   </g>
   <g>
   </g>
   <g>
   </g>
   <g>
   </g>
   <g>
   </g>
   <g>
   </g>
   <g>
   </g>
   <g>
   </g>
   <g>
   </g>
   <g>
   </g>
   <g>
   </g>
   <g>
   </g>
  </g>
 </g>
</svg>
