<?xml version="1.0" encoding="UTF-8"?>
<!DOCTYPE svg PUBLIC "-//W3C//DTD SVG 1.1//EN" "http://www.w3.org/Graphics/SVG/1.1/DTD/svg11.dtd">
<!-- Creator: CorelDRAW X7 -->
<svg xmlns="http://www.w3.org/2000/svg" xml:space="preserve" width="196.427mm" height="196.427mm" version="1.1" shape-rendering="geometricPrecision" text-rendering="geometricPrecision" image-rendering="optimizeQuality" fill-rule="evenodd" clip-rule="evenodd"
viewBox="0 0 27022 27022"
 xmlns:xlink="http://www.w3.org/1999/xlink">
 <g id="Layer_x0020_1">
  <metadata id="CorelCorpID_0Corel-Layer"/>
  <g id="_2376538571024">
   <g>
    <path fill="black" d="M2249 9497l0 9331c0,777 1405,459 3518,459 1229,0 -365,-3365 1071,-3365l3059 0c1436,0 -158,3365 1071,3365 11487,0 11166,969 11166,-7342 -894,565 -571,378 -1377,917 0,5924 971,5048 -8872,5048 0,-3593 -561,-3365 -4894,-3365 -726,0 -1372,330 -1713,735 -565,671 -582,1715 -582,2630l-1071 0 0 -8566c0,-1524 688,-2447 2295,-2447l13002 0c1026,0 1660,352 1683,1377 701,-527 731,-551 1223,-918 -316,-1185 -1552,-1836 -3059,-1836l-12543 0c-2614,0 -3977,1349 -3977,3977z"/>
    <polygon fill="black" points="413,21582 23511,21582 23511,20205 413,20205 "/>
    <path fill="black" d="M15700 15020l0 0c-3,-3 -5,-5 -7,-8l-3325 -3401c-749,-766 249,-1861 1038,-1054l2894 2961 9085 -7897c307,-267 776,-234 1043,72l0 0c267,307 234,777 -73,1044l-9533 8287c-10,11 -20,22 -31,33l0 0c-273,273 -714,297 -1002,50 -31,-26 -62,-55 -89,-87z"/>
    <path fill="black" d="M8458 13854c1363,0 2467,-1105 2467,-2468 0,-1363 -1104,-2467 -2467,-2467 -1363,0 -2468,1104 -2468,2467 0,1363 1105,2468 2468,2468zm0 -1298c646,0 1169,-524 1169,-1170 0,-645 -523,-1169 -1169,-1169 -646,0 -1170,524 -1170,1169 0,646 524,1170 1170,1170z"/>
   </g>
   <rect fill="none" width="27022" height="27022"/>
  </g>
 </g>
</svg>
