<?xml version="1.0" encoding="UTF-8"?>
<!DOCTYPE svg PUBLIC "-//W3C//DTD SVG 1.1//EN" "http://www.w3.org/Graphics/SVG/1.1/DTD/svg11.dtd">
<!-- Creator: CorelDRAW X7 -->
<svg xmlns="http://www.w3.org/2000/svg" xml:space="preserve" width="420px" height="420px" version="1.1" shape-rendering="geometricPrecision" text-rendering="geometricPrecision" image-rendering="optimizeQuality" fill-rule="evenodd" clip-rule="evenodd"
viewBox="0 0 291 291"
 xmlns:xlink="http://www.w3.org/1999/xlink">
 <g id="Layer_x0020_1">
  <metadata id="CorelCorpID_0Corel-Layer"/>
  <path fill="black" d="M266 63c-1,-17 -12,-29 -30,-29 -10,-1 -19,-1 -29,0 -6,0 -10,-1 -10,-9 0,-13 -8,-18 -21,-18 -20,0 -40,0 -61,0 -12,0 -19,5 -19,18 0,7 -3,9 -10,9 -11,-1 -23,-1 -34,0 -12,1 -20,9 -23,20 -4,12 -8,29 3,35 14,9 12,21 13,32 4,46 7,91 11,137 1,16 13,26 29,26 20,0 41,0 61,0 19,0 38,0 57,0 22,0 32,-8 34,-30 4,-50 8,-100 13,-150 0,-3 -2,-8 1,-9 19,-4 15,-20 15,-32zm-157 115c0,19 0,39 0,58 0,5 1,10 -5,10 -7,1 -8,-5 -8,-10 0,-39 0,-78 0,-117 0,-5 1,-10 8,-10 6,1 5,6 5,10 1,20 0,39 0,59zm31 -1c0,-19 0,-39 0,-58 0,-5 0,-10 7,-10 6,0 6,5 6,10 0,39 0,78 0,117 0,5 -1,11 -7,10 -6,0 -6,-5 -6,-10 0,-20 0,-39 0,-59zm43 0c0,-19 0,-39 0,-58 0,-5 0,-10 6,-10 6,0 7,4 7,9 0,40 0,79 0,119 0,5 -1,9 -6,9 -7,1 -7,-5 -7,-10 0,-20 0,-39 0,-59zm-67 -157c20,0 40,0 61,0 5,0 7,2 7,7 0,6 -3,7 -7,7 -10,-1 -21,-1 -31,0 -10,0 -20,-1 -30,0 -5,0 -8,-1 -8,-7 0,-5 3,-7 8,-7zm120 84c-4,50 -8,99 -12,148 -2,15 -6,19 -21,19 -38,0 -76,0 -115,0 -13,0 -18,-5 -19,-19 -4,-49 -8,-98 -13,-148 0,-8 2,-10 9,-10 27,1 54,1 81,1 27,0 54,0 81,-1 8,0 10,3 9,10zm1 -24c-31,0 -61,0 -92,0 -30,0 -60,0 -90,0 -5,0 -15,6 -16,-7 0,-16 5,-24 15,-26 3,0 6,0 8,0 57,0 113,0 169,0 8,0 15,0 19,8 8,15 3,25 -13,25z"/>
  <rect fill="none" width="291" height="291"/>
 </g>
</svg>
