<?xml version="1.0" encoding="UTF-8"?>
<!DOCTYPE svg PUBLIC "-//W3C//DTD SVG 1.1//EN" "http://www.w3.org/Graphics/SVG/1.1/DTD/svg11.dtd">
<!-- Creator: CorelDRAW X7 -->
<svg xmlns="http://www.w3.org/2000/svg" xml:space="preserve" width="196.427mm" height="196.427mm" version="1.1" shape-rendering="geometricPrecision" text-rendering="geometricPrecision" image-rendering="optimizeQuality" fill-rule="evenodd" clip-rule="evenodd"
viewBox="0 0 5579 5579"
 xmlns:xlink="http://www.w3.org/1999/xlink">
 <g id="Layer_x0020_1">
  <metadata id="CorelCorpID_0Corel-Layer"/>
  <g id="_2341936105376">
   <rect fill="none" width="5579" height="5579"/>
   <path fill="black" d="M5469 1524l-274 -274c-36,-37 -78,-55 -126,-55 -47,0 -89,18 -126,55l-2153 2153 -2154 -2153c-37,-37 -79,-55 -126,-55 -48,0 -90,18 -126,55l-274 274c-37,36 -55,78 -55,126 0,47 18,89 55,126l2554 2553c36,37 78,55 126,55 47,0 89,-18 126,-55l2553 -2553c37,-37 55,-79 55,-126 0,-48 -18,-90 -55,-126z"/>
  </g>
 </g>
</svg>
