<?xml version="1.0" encoding="UTF-8"?>
<!DOCTYPE svg PUBLIC "-//W3C//DTD SVG 1.1//EN" "http://www.w3.org/Graphics/SVG/1.1/DTD/svg11.dtd">
<!-- Creator: CorelDRAW X7 -->
<svg xmlns="http://www.w3.org/2000/svg" xml:space="preserve" width="474px" height="474px" version="1.1" shape-rendering="geometricPrecision" text-rendering="geometricPrecision" image-rendering="optimizeQuality" fill-rule="evenodd" clip-rule="evenodd"
viewBox="0 0 113 113"
 xmlns:xlink="http://www.w3.org/1999/xlink">
 <g id="Layer_x0020_1">
  <metadata id="CorelCorpID_0Corel-Layer"/>
  <g id="_3127501719104">
   <path fill="#2B2A29" stroke="#2B2A29" stroke-width="0.494884" d="M10 97l12 -40 53 -54 29 29 -50 51 -44 14zm3 5l83 0c3,0 4,1 4,4l0 0c0,2 -1,4 -4,4l-83 0c-3,0 -5,-2 -5,-4l0 0c0,-3 2,-4 5,-4zm12 -29l5 -13 45 -46 18 17 -41 45 -20 6 -7 -9z"/>
   <rect fill="none" width="113" height="113"/>
  </g>
 </g>
</svg>
