<?xml version="1.0" encoding="UTF-8"?>
<!DOCTYPE svg PUBLIC "-//W3C//DTD SVG 1.1//EN" "http://www.w3.org/Graphics/SVG/1.1/DTD/svg11.dtd">
<!-- Creator: CorelDRAW X7 -->
<svg xmlns="http://www.w3.org/2000/svg" xml:space="preserve" width="196.427mm" height="196.427mm" version="1.1" shape-rendering="geometricPrecision" text-rendering="geometricPrecision" image-rendering="optimizeQuality" fill-rule="evenodd" clip-rule="evenodd"
viewBox="0 0 4686 4686"
 xmlns:xlink="http://www.w3.org/1999/xlink">
 <g id="Layer_x0020_1">
  <metadata id="CorelCorpID_0Corel-Layer"/>
  <g id="_2376412614400">
   <path fill="black" fill-rule="nonzero" d="M590 1468c59,0 113,-24 151,-63 39,-38 63,-92 63,-151 0,-59 -24,-112 -63,-151 -38,-38 -92,-62 -151,-62 -58,0 -112,24 -151,62 -38,39 -62,92 -62,151 0,59 24,113 62,151 39,39 93,63 151,63zm3417 1047c141,0 281,0 422,0 53,0 101,18 136,47 35,29 57,69 57,113 0,140 0,280 0,420 0,44 -22,84 -57,113 -18,15 -39,27 -63,35 0,153 0,305 0,458 0,34 -17,66 -44,88 -27,22 -64,36 -105,36 -90,0 -180,0 -270,0 -41,0 -79,-14 -106,-36 -27,-22 -43,-54 -43,-88 0,-153 0,-305 0,-458 -24,-8 -46,-20 -63,-35 -35,-29 -57,-69 -57,-113 0,-140 0,-280 0,-420 0,-44 22,-84 57,-113 35,-29 83,-47 136,-47zm377 194c-141,0 -210,0 -351,0 -13,0 -26,5 -35,13 -9,7 -15,18 -15,29 0,140 0,204 0,344 0,11 6,22 15,29 4,4 10,7 16,10 3,1 6,1 9,2 70,13 53,93 53,138 0,143 0,207 0,350 0,1 1,3 2,4 1,1 3,1 5,1 90,0 180,0 270,0 2,0 3,0 5,-1 1,-1 2,-3 2,-4 0,-145 0,-211 0,-355 0,-116 -17,-81 59,-145 9,-7 15,-18 15,-29 0,-140 0,-204 0,-344 0,-11 -6,-22 -15,-29 -9,-8 -22,-13 -35,-13zm66 -363c-60,60 -143,97 -235,97 -92,0 -175,-37 -235,-97 -60,-60 -97,-143 -97,-235 0,-92 37,-175 97,-235 60,-60 143,-97 235,-97 92,0 175,37 235,97 60,60 97,143 97,235 0,92 -37,175 -97,235zm-235 -97c76,0 138,-62 138,-138 0,-76 -62,-138 -138,-138 -77,0 -138,62 -138,138 0,76 61,138 138,138zm-791 1179c5,15 8,31 8,47 0,60 0,120 0,179 0,49 -25,93 -66,126 -40,32 -96,52 -158,52 -6,0 -13,0 -19,0 -62,0 -118,-20 -158,-52 -40,-33 -65,-77 -65,-126 0,-59 0,-119 0,-179 0,-15 2,-30 7,-44 -18,1 -37,1 -55,1 -10,0 -19,0 -27,-1 -40,-5 -78,-20 -105,-42 -30,-23 -49,-55 -50,-90 0,-7 1,-13 2,-19 36,-195 73,-391 109,-586 7,-37 27,-130 58,-154 31,-25 73,-41 122,-41 111,0 223,0 334,0 49,0 90,15 121,40 31,24 51,117 59,153 44,194 87,388 131,582 2,7 2,13 2,20 1,35 -18,66 -48,90 -27,21 -63,36 -102,41 -10,2 -20,2 -31,2 -23,1 -46,1 -69,1zm-101 -147c44,-11 92,-1 150,-1 2,0 4,0 7,-1 44,-6 33,-26 27,-50 -41,-184 -83,-333 -124,-517 -3,-14 -10,-26 -20,-34 -6,-5 -13,-7 -21,-7 -111,0 -185,0 -296,0 -9,0 -17,2 -22,7 -10,8 -16,19 -18,32 -36,189 -71,342 -106,531 -4,22 -8,38 30,43 3,0 5,0 6,0 49,0 104,-3 153,11 17,5 22,48 23,81 2,90 -5,187 -5,278 0,18 9,34 24,46 15,12 35,19 58,19 6,0 13,0 19,0 23,0 43,-7 58,-19 69,-55 -29,-398 57,-419zm104 -935c-60,60 -143,97 -235,97 -91,0 -174,-37 -234,-97 -61,-60 -98,-143 -98,-235 0,-92 37,-175 98,-235 60,-60 143,-97 234,-97 92,0 175,37 235,97 61,60 98,143 98,235 0,92 -37,175 -98,235zm-235 -97c77,0 139,-62 139,-138 0,-76 -62,-138 -139,-138 -76,0 -138,62 -138,138 0,76 62,138 138,138zm-1322 -781c59,0 112,-24 151,-63 38,-38 62,-92 62,-151 0,-59 -24,-112 -62,-151 -39,-38 -92,-62 -151,-62 -59,0 -113,24 -151,62 -39,39 -63,92 -63,151 0,59 24,113 63,151 38,39 92,63 151,63zm150 1488c59,-18 148,-1 223,-1 4,0 7,-1 10,-1 58,-11 43,-43 36,-84 -55,-305 -109,-610 -164,-916 -4,-23 -13,-43 -26,-56 -7,-7 -17,-12 -27,-12 -147,0 -294,0 -441,0 -11,0 -21,5 -28,12 -13,13 -21,32 -24,53 -47,313 -93,626 -139,939 -5,36 -10,64 39,71 4,1 6,1 8,1 64,-1 161,-5 226,19 47,16 25,173 25,220 -1,6 -1,12 -1,18 0,99 0,198 0,297 0,30 12,56 32,76 19,19 46,31 75,31 9,0 18,0 26,0 30,0 57,-12 76,-31 91,-91 -38,-601 74,-636zm133 185c7,25 11,51 11,78 0,99 0,198 0,297 0,81 -33,154 -86,208 -53,53 -127,86 -208,86 -8,0 -17,0 -26,0 -81,0 -154,-33 -207,-86 -53,-54 -86,-127 -86,-208 0,-99 0,-198 0,-297 0,-25 3,-49 9,-72 -24,0 -48,0 -71,1 -14,0 -26,-1 -37,-3 -52,-7 -102,-33 -138,-69 -39,-38 -64,-90 -65,-148 0,-12 0,-22 2,-32 48,-324 96,-648 143,-972 9,-60 36,-117 77,-157 41,-42 96,-67 160,-67 147,0 294,0 441,0 64,0 118,25 159,66 40,40 66,96 77,155 57,322 115,644 172,965 2,11 3,22 4,33 0,58 -25,110 -64,148 -35,35 -83,60 -134,69 -13,3 -27,4 -41,4 -31,1 -61,1 -92,1zm-1 -1604c-72,72 -172,117 -282,117 -111,0 -211,-45 -283,-117 -72,-72 -117,-172 -117,-283 0,-110 45,-210 117,-282 72,-73 172,-118 283,-118 110,0 210,45 282,118 73,72 118,172 118,282 0,111 -45,211 -118,283zm-1835 187c184,0 367,0 551,0 70,0 133,28 178,74 46,46 74,109 74,178 0,220 0,440 0,660 0,69 -28,132 -73,178 -24,24 -52,42 -83,55 0,241 0,481 0,721 0,54 -22,103 -57,138 -35,36 -84,58 -138,58 -118,0 -235,0 -353,0 -54,0 -103,-22 -138,-58 -35,-35 -57,-84 -57,-138 0,-240 0,-480 0,-721 -31,-13 -59,-31 -83,-55 -45,-46 -74,-109 -74,-178 0,-220 0,-440 0,-660 0,-69 29,-132 74,-178 46,-46 109,-74 179,-74zm551 186c-184,0 -367,0 -551,0 -18,0 -35,8 -47,20 -12,12 -19,28 -19,46 0,220 0,440 0,660 0,19 7,35 19,47 6,6 13,11 21,14 4,2 8,3 12,4 92,20 104,147 104,218 0,224 0,448 0,671 0,3 1,5 3,7 1,1 4,2 6,2 118,0 235,0 353,0 2,0 5,-1 6,-2 2,-2 3,-4 3,-7 0,-226 0,-453 0,-680 0,-181 37,-126 137,-227 12,-12 19,-28 19,-47 0,-220 0,-440 0,-660 0,-18 -7,-34 -19,-46 -12,-12 -29,-20 -47,-20zm5 -373c-72,72 -172,117 -283,117 -110,0 -210,-45 -282,-117 -73,-72 -117,-172 -117,-283 0,-110 44,-210 117,-282 72,-73 172,-118 282,-118 111,0 211,45 283,118 73,72 117,172 117,282 0,111 -44,211 -117,283z"/>
   <rect fill="none" width="4686" height="4686"/>
  </g>
 </g>
</svg>
