<?xml version="1.0" encoding="UTF-8"?>
<!DOCTYPE svg PUBLIC "-//W3C//DTD SVG 1.1//EN" "http://www.w3.org/Graphics/SVG/1.1/DTD/svg11.dtd">
<!-- Creator: CorelDRAW X7 -->
<svg xmlns="http://www.w3.org/2000/svg" xml:space="preserve" width="196.427mm" height="196.427mm" version="1.1" shape-rendering="geometricPrecision" text-rendering="geometricPrecision" image-rendering="optimizeQuality" fill-rule="evenodd" clip-rule="evenodd"
viewBox="0 0 5671 5671"
 xmlns:xlink="http://www.w3.org/1999/xlink">
 <g id="Layer_x0020_1">
  <metadata id="CorelCorpID_0Corel-Layer"/>
  <g id="_2376416017952">
   <g>
    <path fill="black" d="M2988 4017c35,-39 65,-83 132,-36l210 148c41,28 48,69 37,104 -1,12 -6,23 -16,30 -26,38 -75,60 -117,30l-211 -148c-40,-28 -72,-86 -35,-128zm-359 -878l0 0c39,29 48,85 21,125l-506 722c-28,39 -82,48 -121,20l0 0c-39,-29 -49,-85 -21,-125l506 -722c27,-39 82,-48 121,-20zm-528 130l-319 470c-27,40 -85,59 -120,26l0 0c-35,-34 -54,-83 -27,-123l319 -471c66,-96 202,17 147,98zm-552 32l-147 187c-18,22 -83,62 -120,26 -35,-34 -73,-64 -27,-123l147 -187c72,-91 207,21 147,97zm1219 556l-250 366c-27,40 -86,60 -120,26l0 0c-34,-35 -54,-84 -27,-124l251 -366c65,-95 201,18 146,98zm-1390 -1686c0,19 -1,38 -1,56 0,67 6,128 32,183 39,82 78,130 158,170 253,128 694,-186 985,-313 108,-47 124,-31 217,24l698 391c104,63 199,118 306,186l375 238 453 287c98,62 -19,197 -101,144l-433 -274 -401 -254c-87,-55 -338,-241 -412,-203 -222,90 31,260 129,322l885 561c98,62 -19,196 -101,144l-885 -561c-278,-176 -340,33 -226,156l670 445c17,10 32,19 46,30 2,1 3,2 4,3l38 25c19,13 30,28 34,44 21,77 -76,140 -135,101l-767 -510c-3,-1 -6,-3 -8,-6 -33,-18 -66,-37 -102,-56 29,-125 86,-155 96,-267 18,-181 -128,-401 -390,-390 -157,7 -166,68 -263,133 -468,-248 -427,47 -602,8 -115,-26 -121,-118 -333,-62 -177,47 -149,139 -276,185l250 -885 56 -174c9,-42 25,-85 56,-206 170,-40 170,-12 391,-12l-218 141 -225 196zm377 154c-92,0 -60,-14 -98,-65 123,-29 767,-448 927,-547 302,-186 363,-23 961,296 432,231 324,251 764,251 46,198 192,557 196,753l-1833 -1080c-241,0 -768,392 -917,392zm2717 -523c79,-38 633,-161 753,-164l0 1800 -295 0c-65,-279 -157,-544 -229,-818l-229 -818zm-3731 1440l-295 0 0 -1800 753 163c-113,484 -345,1151 -458,1637zm-589 -1964l0 2095c0,230 403,163 687,163 73,0 72,-25 131,-65 50,105 44,164 149,243 133,100 181,41 270,123 84,77 39,128 212,183 226,72 67,-39 214,142 142,174 184,16 362,230 48,58 35,55 102,94 223,131 411,5 524,-164 266,141 580,450 818,0 86,41 158,52 273,13 244,-83 70,-156 315,-211 186,-42 203,-13 318,-206 241,-404 993,56 993,-414l0 -1997c0,-319 -264,-188 -760,-72l-480 109c-63,24 -152,36 -109,227 26,111 36,34 39,194 -235,0 -405,-120 -648,-268 -182,-111 -363,-189 -549,-302 -296,-181 -261,-119 -531,53 -375,238 -146,92 -694,92 -156,0 -136,22 -262,32 -65,-139 35,145 -8,-49 -48,-213 -153,-168 -509,-252l-759 -157c-45,68 -98,85 -98,164z"/>
   </g>
   <rect fill="none" width="5671" height="5671"/>
  </g>
 </g>
</svg>
