<?xml version="1.0" encoding="UTF-8"?>
<!DOCTYPE svg PUBLIC "-//W3C//DTD SVG 1.1//EN" "http://www.w3.org/Graphics/SVG/1.1/DTD/svg11.dtd">
<!-- Creator: CorelDRAW X7 -->
<svg xmlns="http://www.w3.org/2000/svg" xml:space="preserve" width="196.427mm" height="196.427mm" version="1.1" shape-rendering="geometricPrecision" text-rendering="geometricPrecision" image-rendering="optimizeQuality" fill-rule="evenodd" clip-rule="evenodd"
viewBox="0 0 3928 3928"
 xmlns:xlink="http://www.w3.org/1999/xlink">
 <g id="Layer_x0020_1">
  <metadata id="CorelCorpID_0Corel-Layer"/>
  <g id="_2376414534224">
   <g>
    <path fill="#39C1F0" d="M1831 3595c901,0 1631,-730 1631,-1631 0,-901 -730,-1631 -1631,-1631 -901,0 -1631,730 -1631,1631 0,901 730,1631 1631,1631zm0 -239c769,0 1392,-623 1392,-1392 0,-769 -623,-1392 -1392,-1392 -769,0 -1392,623 -1392,1392 0,769 623,1392 1392,1392z"/>
    <path fill="#050708" d="M1831 3861c1048,0 1897,-849 1897,-1897 0,-1048 -849,-1897 -1897,-1897l0 266c901,0 1631,730 1631,1631 0,901 -730,1631 -1631,1631l0 266z"/>
   </g>
   <rect fill="none" width="3928" height="3928"/>
  </g>
 </g>
</svg>
