<?xml version="1.0" encoding="UTF-8"?>
<!DOCTYPE svg PUBLIC "-//W3C//DTD SVG 1.1//EN" "http://www.w3.org/Graphics/SVG/1.1/DTD/svg11.dtd">
<!-- Creator: CorelDRAW X7 -->
<svg xmlns="http://www.w3.org/2000/svg" xml:space="preserve" width="1516px" height="1516px" version="1.1" shape-rendering="geometricPrecision" text-rendering="geometricPrecision" image-rendering="optimizeQuality" fill-rule="evenodd" clip-rule="evenodd"
viewBox="0 0 1516 1516"
 xmlns:xlink="http://www.w3.org/1999/xlink">
 <g id="Layer_x0020_1">
  <metadata id="CorelCorpID_0Corel-Layer"/>
  <rect fill="none" width="1516" height="1516"/>
  <path fill="black" d="M758 57c-386,0 -701,315 -701,701 0,386 315,701 701,701 386,0 701,-315 701,-701 0,-386 -315,-701 -701,-701zm0 1272c-315,0 -571,-256 -571,-571 0,-315 256,-571 571,-571 315,0 571,256 571,571 0,315 -256,571 -571,571z"/>
  <path fill="black" d="M1080 699c-490,0 -154,0 -644,0 -32,0 -59,26 -59,59 0,33 27,59 59,59 490,0 154,0 644,0 32,0 59,-26 59,-59 0,-33 -27,-59 -59,-59z"/>
  <g id="_2892009922176">
  </g>
  <g id="_2892009921504">
  </g>
  <g id="_2892009921696">
  </g>
  <g id="_2892009923168">
  </g>
  <g id="_2892009923872">
  </g>
  <g id="_2892009924320">
  </g>
  <g id="_2892009923488">
  </g>
  <g id="_2892009923808">
  </g>
  <g id="_2892009923552">
  </g>
  <g id="_2892009923360">
  </g>
  <g id="_2892009927072">
  </g>
  <g id="_2892009925376">
  </g>
  <g id="_2892009927136">
  </g>
  <g id="_2892009925760">
  </g>
  <g id="_2892009925920">
  </g>
 </g>
</svg>
