<?xml version="1.0" encoding="UTF-8"?>
<!DOCTYPE svg PUBLIC "-//W3C//DTD SVG 1.1//EN" "http://www.w3.org/Graphics/SVG/1.1/DTD/svg11.dtd">
<!-- Creator: CorelDRAW X7 -->
<svg xmlns="http://www.w3.org/2000/svg" xml:space="preserve" width="218.722mm" height="218.722mm" version="1.1" shape-rendering="geometricPrecision" text-rendering="geometricPrecision" image-rendering="optimizeQuality" fill-rule="evenodd" clip-rule="evenodd"
viewBox="0 0 6728 6728"
 xmlns:xlink="http://www.w3.org/1999/xlink">
 <g id="Layer_x0020_1">
  <metadata id="CorelCorpID_0Corel-Layer"/>
  <g id="plus-sign-in-circle.svg">
   <g>
    <g>
     <path fill="black" d="M3364 255c-1714,0 -3109,1395 -3109,3109 0,1714 1395,3109 3109,3109 1714,0 3109,-1395 3109,-3109 0,-1714 -1395,-3109 -3109,-3109zm0 5641c-1396,0 -2532,-1136 -2532,-2532 0,-1397 1136,-2532 2532,-2532 1396,0 2532,1135 2532,2532 0,1396 -1136,2532 -2532,2532z"/>
     <path fill="black" d="M4791 3100l-1163 0 0 -1163c0,-146 -118,-264 -264,-264 -146,0 -264,118 -264,264l0 1163 -1163 0c-146,0 -264,118 -264,264 0,146 118,264 264,264l1163 0 0 1163c0,146 118,264 264,264 146,0 264,-118 264,-264l0 -1163 1163 0c146,0 264,-118 264,-264 0,-146 -118,-264 -264,-264z"/>
    </g>
   </g>
   <g>
   </g>
   <g>
   </g>
   <g>
   </g>
   <g>
   </g>
   <g>
   </g>
   <g>
   </g>
   <g>
   </g>
   <g>
   </g>
   <g>
   </g>
   <g>
   </g>
   <g>
   </g>
   <g>
   </g>
   <g>
   </g>
   <g>
   </g>
   <g>
   </g>
  </g>
  <rect fill="none" width="6728" height="6728"/>
 </g>
</svg>
