<?xml version="1.0" encoding="UTF-8"?>
<!DOCTYPE svg PUBLIC "-//W3C//DTD SVG 1.1//EN" "http://www.w3.org/Graphics/SVG/1.1/DTD/svg11.dtd">
<!-- Creator: CorelDRAW X7 -->
<svg xmlns="http://www.w3.org/2000/svg" xml:space="preserve" width="420px" height="420px" version="1.1" shape-rendering="geometricPrecision" text-rendering="geometricPrecision" image-rendering="optimizeQuality" fill-rule="evenodd" clip-rule="evenodd"
viewBox="0 0 88 88"
 xmlns:xlink="http://www.w3.org/1999/xlink">
 <g id="Layer_x0020_1">
  <metadata id="CorelCorpID_0Corel-Layer"/>
  <g id="_2248319644592">
   <path fill="black" d="M83 37l-30 0c-1,0 -2,-1 -2,-2l0 -30c0,-2 -1,-3 -3,-3l-7 0c-3,0 -4,1 -4,3l0 30c0,1 -1,2 -2,2l-30 0c-2,0 -3,1 -3,4l0 7c0,2 1,3 3,3l30 0c1,0 2,1 2,2l0 30c0,2 1,3 4,3l7 0c2,0 3,-1 3,-3l0 -30c0,-1 1,-2 2,-2l30 0c2,0 3,-1 3,-3l0 -7c0,-3 -1,-4 -3,-4z"/>
   <rect fill="none" width="88.1872" height="88.1872"/>
  </g>
 </g>
</svg>
