<?xml version="1.0" encoding="UTF-8"?>
<!DOCTYPE svg PUBLIC "-//W3C//DTD SVG 1.1//EN" "http://www.w3.org/Graphics/SVG/1.1/DTD/svg11.dtd">
<!-- Creator: CorelDRAW X7 -->
<svg xmlns="http://www.w3.org/2000/svg" xml:space="preserve" width="196.427mm" height="196.427mm" version="1.1" shape-rendering="geometricPrecision" text-rendering="geometricPrecision" image-rendering="optimizeQuality" fill-rule="evenodd" clip-rule="evenodd"
viewBox="0 0 11194 11194"
 xmlns:xlink="http://www.w3.org/1999/xlink">
 <g id="Layer_x0020_1">
  <metadata id="CorelCorpID_0Corel-Layer"/>
  <g id="_2376414545328">
   <rect fill="none" width="11194" height="11194"/>
   <path fill="black" d="M6276 2880l-1358 0 0 2038 -2038 0 0 1358 2038 0 0 2038 1358 0 0 -2038 2038 0 0 -1358 -2038 0 0 -2038zm-679 -2717c-3001,0 -5434,2433 -5434,5434 0,3001 2433,5434 5434,5434 3001,0 5434,-2433 5434,-5434 0,-3001 -2433,-5434 -5434,-5434zm0 9737c2377,0 4303,-1926 4303,-4303 0,-2377 -1926,-4303 -4303,-4303 -2377,0 -4303,1926 -4303,4303 0,2377 1926,4303 4303,4303z"/>
  </g>
 </g>
</svg>
