<?xml version="1.0" encoding="UTF-8"?>
<!DOCTYPE svg PUBLIC "-//W3C//DTD SVG 1.1//EN" "http://www.w3.org/Graphics/SVG/1.1/DTD/svg11.dtd">
<!-- Creator: CorelDRAW X7 -->
<svg xmlns="http://www.w3.org/2000/svg" xml:space="preserve" width="196.427mm" height="196.427mm" version="1.1" shape-rendering="geometricPrecision" text-rendering="geometricPrecision" image-rendering="optimizeQuality" fill-rule="evenodd" clip-rule="evenodd"
viewBox="0 0 24010 24010"
 xmlns:xlink="http://www.w3.org/1999/xlink">
 <g id="Layer_x0020_1">
  <metadata id="CorelCorpID_0Corel-Layer"/>
  <g id="_2376414536976">
   <g>
    <path fill="black" d="M4272 12344l0 -9795c5898,-1129 11685,-680 15466,0l0 9383c0,2517 -1303,4974 -2413,6454 -1046,1395 -3802,3423 -5172,3693 -1056,208 -4182,-2129 -5280,-3469 -668,-816 -1254,-1690 -1703,-2730 -361,-834 -898,-2418 -898,-3536zm-1444 -9692l0 9795c0,2912 2286,6922 4184,8396 640,497 488,494 1446,1132 633,422 2671,1608 3547,1608 782,0 2912,-1189 3487,-1565 3017,-1971 5690,-6115 5690,-9674l0 -9795c0,-287 -251,-777 -393,-947 -1209,-1447 -16065,-1682 -17568,-1 -227,254 -393,592 -393,1051z"/>
    <path fill="black" d="M15039 7052c-311,-72 -1996,-1174 -3657,-510 -858,343 -1197,1367 -890,2245 650,1856 5417,1795 5417,5095 0,1256 -130,1833 -1053,2763 -1080,1087 -2161,727 -2161,1187l0 1875 -1205 0 0 -2008c-1845,0 -2606,-694 -3080,-804 11,-502 359,-887 402,-1406 1089,576 3255,1415 4498,413 1174,-947 1095,-2673 -660,-3649 -839,-466 -1617,-614 -2648,-1303 -2308,-1542 -1706,-4645 521,-5535 216,-87 355,-146 594,-209 663,-175 507,125 507,-2105l1205 0 0 1942c1464,0 2277,576 2679,670 -103,215 -448,1092 -469,1339z"/>
   </g>
   <rect fill="none" width="24010" height="24010"/>
  </g>
 </g>
</svg>
