<?xml version="1.0" encoding="UTF-8"?>
<!DOCTYPE svg PUBLIC "-//W3C//DTD SVG 1.1//EN" "http://www.w3.org/Graphics/SVG/1.1/DTD/svg11.dtd">
<!-- Creator: CorelDRAW X7 -->
<svg xmlns="http://www.w3.org/2000/svg" xml:space="preserve" width="196.427mm" height="196.427mm" version="1.1" shape-rendering="geometricPrecision" text-rendering="geometricPrecision" image-rendering="optimizeQuality" fill-rule="evenodd" clip-rule="evenodd"
viewBox="0 0 2782 2782"
 xmlns:xlink="http://www.w3.org/1999/xlink">
 <g id="Layer_x0020_1">
  <metadata id="CorelCorpID_0Corel-Layer"/>
  <g id="_2376415997376">
   <path fill="black" d="M1390 70l0 0c24,0 43,20 43,43l0 270c0,23 -19,42 -43,42l0 0c-23,0 -42,-19 -42,-42l0 -270c0,-23 19,-43 42,-43zm584 1127l-366 -53 -165 -335c-36,-74 -64,-73 -100,0l-165 335 -382 55c-84,12 -73,46 -22,95l271 259 -62 359c-15,89 0,110 85,65l325 -171 321 169c71,37 107,42 90,-53l-63 -369 253 -246c61,-59 88,-94 -20,-110zm-301 315c-9,9 -13,22 -11,34l59 346 -310 -163c-6,-3 -12,-5 -18,-5 -6,0 -12,2 -18,5l-311 163 60 -346c2,-12 -2,-25 -11,-34l-256 -245 352 -50c12,-2 23,-10 29,-21l155 -315 155 315c6,11 17,19 29,21l348 50 -252 245zm-1171 -1098l0 0c18,-16 45,-15 61,3l181 199c16,17 14,45 -3,60l0 0c-17,16 -45,15 -61,-2l-181 -200c-16,-17 -14,-44 3,-60zm-430 910l0 0c1,-24 21,-42 45,-41l269 14c23,1 41,21 40,45l0 0c-1,23 -21,42 -45,40l-269 -13c-23,-2 -42,-22 -40,-45zm379 995l0 0c-16,-16 -16,-44 1,-60l191 -190c17,-16 44,-16 61,1l0 0c16,16 16,44 -1,60l-191 190c-17,16 -44,16 -61,-1zm952 392l0 0c-24,1 -43,-19 -43,-42l-3 -269c0,-24 19,-43 43,-44l0 0c23,0 43,19 43,43l2 269c0,24 -19,43 -42,43zm965 -433l0 0c-15,18 -43,19 -60,3l-200 -181c-17,-16 -18,-43 -3,-60l0 0c16,-18 44,-19 61,-3l199 181c18,16 19,43 3,60zm342 -930l0 0c1,24 -18,44 -41,44l-269 9c-24,1 -44,-18 -45,-41l0 0c0,-24 18,-44 42,-45l269 -8c24,-1 43,18 44,41zm-401 -906l0 0c17,17 17,44 1,61l-187 193c-17,17 -44,18 -61,1l0 0c-17,-16 -17,-43 -1,-60l187 -194c17,-17 44,-17 61,-1z"/>
   <rect fill="none" width="2782" height="2782"/>
  </g>
 </g>
</svg>
